<svg version="1.1" viewBox="0.0 0.0 393.6010498687664 393.6010498687664" fill="none" stroke="none" stroke-linecap="square" stroke-miterlimit="10" xmlns:xlink="http://www.w3.org/1999/xlink" xmlns="http://www.w3.org/2000/svg"><clipPath id="p.0"><path d="m0 0l393.60104 0l0 393.60104l-393.60104 0l0 -393.60104z" clip-rule="nonzero"/></clipPath><g clip-path="url(#p.0)"><path fill="#000000" d="m0 0l393.60104 0l0 393.60104l-393.60104 0z" fill-rule="evenodd"/><path fill="#eabf3e" d="m9.606299 9.606299l86.3937 0l0 86.3937l-86.3937 0z" fill-rule="evenodd"/><path fill="#49d088" d="m9.606299 105.6063l86.3937 0l0 86.3937l-86.3937 0z" fill-rule="evenodd"/><path fill="#49d088" d="m9.606299 201.6063l86.3937 0l0 86.39371l-86.3937 0z" fill-rule="evenodd"/><path fill="#49d088" d="m9.606299 297.6063l86.3937 0l0 86.39371l-86.3937 0z" fill-rule="evenodd"/><path fill="#eabf3e" d="m105.6063 9.603675l86.3937 0l0 86.3937l-86.3937 0z" fill-rule="evenodd"/><path fill="#eabf3e" d="m105.6063 105.603676l86.3937 0l0 86.3937l-86.3937 0z" fill-rule="evenodd"/><path fill="#49d088" d="m105.6063 201.60367l86.3937 0l0 86.39371l-86.3937 0z" fill-rule="evenodd"/><path fill="#49d088" d="m105.6063 297.60367l86.3937 0l0 86.39371l-86.3937 0z" fill-rule="evenodd"/><path fill="#5c5c70" d="m201.6063 9.604987l86.39371 0l0 86.3937l-86.39371 0z" fill-rule="evenodd"/><path fill="#eabf3e" d="m201.6063 105.60499l86.39371 0l0 86.3937l-86.39371 0z" fill-rule="evenodd"/><path fill="#eabf3e" d="m201.6063 201.60498l86.39371 0l0 86.39371l-86.39371 0z" fill-rule="evenodd"/><path fill="#49d088" d="m201.6063 297.60498l86.39371 0l0 86.39371l-86.39371 0z" fill-rule="evenodd"/><path fill="#5c5c70" d="m297.6063 9.602363l86.39371 0l0 86.3937l-86.39371 0z" fill-rule="evenodd"/><path fill="#5c5c70" d="m297.6063 105.60236l86.39371 0l0 86.3937l-86.39371 0z" fill-rule="evenodd"/><path fill="#eabf3e" d="m297.6063 201.60236l86.39371 0l0 86.39371l-86.39371 0z" fill-rule="evenodd"/><path fill="#49d088" d="m297.6063 297.60236l86.39371 0l0 86.39371l-86.39371 0z" fill-rule="evenodd"/></g></svg>